<svg clip-rule="evenodd" fill-rule="evenodd" height="2500" stroke-linejoin="round" stroke-miterlimit="2" viewBox="25.388 7.515 239.638 279.415" width="1970" xmlns="http://www.w3.org/2000/svg"><g fill-rule="nonzero"><path d="m104.163 277.869 4.842-30.76-10.787-.25h-51.509l35.796-226.971a2.994 2.994 0 0 1 1-1.777 2.923 2.923 0 0 1 1.908-.704h86.851c28.833 0 48.731 6 59.12 17.843 4.87 5.555 7.972 11.361 9.472 17.749 1.574 6.704 1.602 14.713.065 24.482l-.111.713v6.259l4.87 2.759c4.102 2.176 7.361 4.667 9.861 7.519 4.167 4.75 6.861 10.787 8 17.944 1.176 7.361.787 16.12-1.139 26.037-2.222 11.407-5.814 21.342-10.666 29.472-4.463 7.491-10.148 13.704-16.898 18.518-6.445 4.574-14.102 8.047-22.759 10.269-8.389 2.185-17.954 3.287-28.445 3.287h-6.759a20.497 20.497 0 0 0 -13.213 4.861c-3.694 3.185-6.139 7.537-6.889 12.296l-.509 2.769-8.555 54.212-.389 1.991c-.102.63-.278.945-.537 1.157a1.43 1.43 0 0 1 -.889.325z" fill="#253b80"/><path d="m239.415 78.505a152.404 152.404 0 0 1 -.889 5.093c-11.454 58.805-50.639 79.119-100.685 79.119h-25.481c-6.12 0-11.278 4.445-12.231 10.482l-13.047 82.74-3.694 23.454c-.62 3.963 2.435 7.537 6.435 7.537h45.194c5.352 0 9.898-3.889 10.741-9.167l.444-2.296 8.51-54 .546-2.963a10.868 10.868 0 0 1 10.741-9.185h6.759c43.787 0 78.064-17.778 88.083-69.222 4.185-21.49 2.018-39.435-9.056-52.055-3.352-3.806-7.509-6.963-12.37-9.537z" fill="#179bd7"/><path d="m227.433 73.727a90.751 90.751 0 0 0 -5.407-1.389 103.713 103.713 0 0 0 -5.731-1.083c-6.871-1.111-14.398-1.639-22.463-1.639h-68.074a10.85 10.85 0 0 0 -10.731 9.185l-14.482 91.722-.416 2.676c.953-6.037 6.111-10.482 12.231-10.482h25.481c50.046 0 89.231-20.324 100.685-79.119.343-1.741.63-3.436.889-5.093-2.898-1.537-6.037-2.852-9.417-3.972a81.633 81.633 0 0 0 -2.565-.806z" fill="#222d65"/><path d="m115.027 78.801a10.82 10.82 0 0 1 6.037-8.111 10.84 10.84 0 0 1 4.694-1.065h68.074c8.065 0 15.592.528 22.463 1.639 1.963.315 3.87.676 5.731 1.084 1.852.416 3.657.879 5.407 1.388.871.26 1.732.528 2.575.797 3.379 1.12 6.518 2.444 9.416 3.972 3.408-21.731-.028-36.528-11.778-49.926-12.953-14.75-36.333-21.064-66.249-21.064h-86.852c-6.111 0-11.324 4.444-12.268 10.49l-36.176 229.305c-.713 4.537 2.787 8.629 7.361 8.629h53.62l13.463-85.416z" fill="#253b80"/></g></svg>