<svg height="1746" viewBox="1.376 1.326 243.258 170.273" width="2500" xmlns="http://www.w3.org/2000/svg"><g fill="none" fill-rule="evenodd"><path d="m239.564 27.912c-2.786-10.449-11.03-18.69-21.516-21.516-18.962-5.07-95.043-5.07-95.043-5.07s-76.042 0-95.043 5.07c-10.448 2.786-18.692 11.03-21.516 21.516-5.07 18.962-5.07 58.55-5.07 58.55s0 39.59 5.07 58.551c2.786 10.45 11.029 18.691 21.516 21.516 19 5.07 95.043 5.07 95.043 5.07s76.08 0 95.043-5.07c10.449-2.786 18.69-11.029 21.516-21.516 5.07-18.962 5.07-58.55 5.07-58.55s0-39.589-5.07-58.55z" fill="#f00"/><path d="m98.703 122.955 63.194-36.493-63.194-36.492z" fill="#fff"/></g></svg>